<?xml version="1.0" encoding="UTF-8" standalone="no"?>
<svg
   xmlns:dc="http://purl.org/dc/elements/1.1/"
   xmlns:svg="http://www.w3.org/2000/svg"
   xmlns="http://www.w3.org/2000/svg"
   width="6.8378253mm"
   height="11.410156mm"
   viewBox="0 0 16 16"
   version="1.1"
   style="background-color:#78c2ad">
  <g transform="translate(-53.26521,-120.07)" fill="#5a5a5a" stroke="none">
    <g transform="scale(0.37101445)">
      <path
         d="m 158.08984,339.33738 h -5.21875 l 1.15625,-5.9375 h 5.65625 l 4.46875,-8.8125 h 5.5 l -1.71875,8.8125 h 12.03125 l -1.15625,5.9375 h -12.03125 l -3.21875,16.5625 q -0.34375,1.875 -0.34375,2.59375 0,1.6875 1.125,2.4375 1.125,0.71875 3.5625,0.71875 3.84375,0 8.125,-0.84375 l -1.125,5.8125 q -1.21875,0.1875 -2.40625,0.375 -1.15625,0.1875 -2.40625,0.3125 -1.21875,0.15625 -2.59375,0.21875 -1.34375,0.0937 -2.9375,0.0937 -5.0625,0 -7.6875,-1.78125 -2.625,-1.78125 -2.625,-5.625 0,-0.90625 0.15625,-1.96875 0.15625,-1.0625 3.6875,-18.90625 z"
         />
    </g>
  </g>
</svg>
